<?xml version="1.0" standalone="no"?><!DOCTYPE svg PUBLIC "-//W3C//DTD SVG 1.1//EN" "http://www.w3.org/Graphics/SVG/1.1/DTD/svg11.dtd"><svg t="1672371723720" class="icon" viewBox="0 0 1024 1024" version="1.1" xmlns="http://www.w3.org/2000/svg" p-id="3430" xmlns:xlink="http://www.w3.org/1999/xlink" width="128" height="128"><path d="M643.897 927h-29.31l-0.002-58.608h-29.31V927h-29.31v-58.608h-29.31V927h-29.31v-58.608h-29.31V927h-29.31l-0.002-58.608h-29.31V927h-29.31V809.785h263.794V927z" fill="#FFB005" p-id="3431"></path><path d="M409.34 194.409h205.32c178.023 0 322.34 144.316 322.34 322.34 0 178.023-144.317 322.34-322.34 322.34H409.34C231.317 839.089 87 694.772 87 516.749c0-178.024 144.317-322.34 322.34-322.34z" fill="#FC3131" p-id="3432"></path><path d="M394.759 98H629.24c8.094 0 14.656 6.561 14.656 14.655v53.88H380.103v-53.88c0-8.094 6.562-14.655 14.656-14.655zM380.103 179.757h263.794v25.526a3.778 3.778 0 0 1-3.778 3.778H383.88a3.778 3.778 0 0 1-3.778-3.778v-25.526z" fill="#FFD249" p-id="3433"></path><path d="M550.69 710.246V635.33h117.476v-35.876H550.69v-65.069h94.613v-34.469H550.69v-45.372h106.924v-35.524h-212.09c3.87-9.849 7.386-20.4 10.552-31.656l-37.986-7.034c-11.959 43.965-35.524 78.786-70.345 104.814l24.62 31.303c22.16-16.883 40.8-37.283 55.573-61.903h85.82v45.372h-104.11v99.538h-54.165v35.876h158.276v74.917h36.93z m-36.931-110.793h-67.18v-65.069h67.18v65.07z" fill="#E41E1E" p-id="3434"></path><path d="M550.69 678.246V603.33h117.476v-35.876H550.69v-65.069h94.613v-34.469H550.69v-45.372h106.924v-35.524h-212.09c3.87-9.849 7.386-20.4 10.552-31.656l-37.986-7.034c-11.959 43.965-35.524 78.786-70.345 104.814l24.62 31.303c22.16-16.883 40.8-37.283 55.573-61.903h85.82v45.372h-104.11v99.538h-54.165v35.876h158.276v74.917h36.93z m-36.931-110.793h-67.18v-65.069h67.18v65.07z" fill="#FFFFFF" p-id="3435"></path></svg>